<?xml version="1.0" encoding="UTF-8"?>
<svg width="1440" height="860" viewBox="0 0 1440 860" xmlns="http://www.w3.org/2000/svg">
  <defs>
    <marker id="arrow" markerWidth="12" markerHeight="12" refX="9" refY="4" orient="auto" markerUnits="strokeWidth">
      <path d="M0 0 L10 4 L0 8 z" fill="#111"/>
    </marker>
  </defs>
  <rect width="1440" height="860" fill="#F8F5EE"/>
<text x="72" y="92" font-family="Inter, Arial, sans-serif" font-size="38" font-weight="820" fill="#24211C" >BUILD, BUY, OR PARTNER?</text>
<text x="74" y="132" font-family="Inter, Arial, sans-serif" font-size="19" font-weight="540" fill="#6C6258" >Score only enough to make the decision legible.</text>
<line x1="72" y1="176" x2="1368" y2="176" stroke="#24211C" stroke-width="2" />
<text x="92" y="226" font-family="Inter, Arial, sans-serif" font-size="20" font-weight="720" fill="#6C6258" >Option</text>
<text x="470" y="226" font-family="Inter, Arial, sans-serif" font-size="20" font-weight="720" fill="#6C6258" >Impact</text>
<text x="650" y="226" font-family="Inter, Arial, sans-serif" font-size="20" font-weight="720" fill="#6C6258" >Speed</text>
<text x="830" y="226" font-family="Inter, Arial, sans-serif" font-size="20" font-weight="720" fill="#6C6258" >Risk</text>
<text x="1010" y="226" font-family="Inter, Arial, sans-serif" font-size="20" font-weight="720" fill="#6C6258" >Fit</text>
<text x="1190" y="226" font-family="Inter, Arial, sans-serif" font-size="20" font-weight="720" fill="#6C6258" >Signal</text>
<line x1="72" y1="254" x2="1368" y2="254" stroke="#D0C7BC" stroke-width="1.5" />
<text x="92" y="300" font-family="Inter, Arial, sans-serif" font-size="31" font-weight="780" fill="#24211C" >Build</text>
<rect x="480" y="274" width="112" height="20" rx="10" fill="#E5DED2" stroke="none" stroke-width="0" />
<rect x="480" y="274" width="88" height="20" rx="10" fill="#24211C" stroke="none" stroke-width="0" />
<rect x="660" y="274" width="112" height="20" rx="10" fill="#E5DED2" stroke="none" stroke-width="0" />
<rect x="660" y="274" width="44" height="20" rx="10" fill="#24211C" stroke="none" stroke-width="0" />
<rect x="840" y="274" width="112" height="20" rx="10" fill="#E5DED2" stroke="none" stroke-width="0" />
<rect x="840" y="274" width="66" height="20" rx="10" fill="#24211C" stroke="none" stroke-width="0" />
<rect x="1020" y="274" width="112" height="20" rx="10" fill="#E5DED2" stroke="none" stroke-width="0" />
<rect x="1020" y="274" width="110" height="20" rx="10" fill="#24211C" stroke="none" stroke-width="0" />
<text x="1190" y="300" font-family="Inter, Arial, sans-serif" font-size="22" font-weight="620" fill="#24211C" >best for core</text>
<line x1="72" y1="364" x2="1368" y2="364" stroke="#D0C7BC" stroke-width="1.5" />
<text x="92" y="410" font-family="Inter, Arial, sans-serif" font-size="31" font-weight="780" fill="#24211C" >Buy</text>
<rect x="480" y="384" width="112" height="20" rx="10" fill="#E5DED2" stroke="none" stroke-width="0" />
<rect x="480" y="384" width="66" height="20" rx="10" fill="#24211C" stroke="none" stroke-width="0" />
<rect x="660" y="384" width="112" height="20" rx="10" fill="#E5DED2" stroke="none" stroke-width="0" />
<rect x="660" y="384" width="110" height="20" rx="10" fill="#24211C" stroke="none" stroke-width="0" />
<rect x="840" y="384" width="112" height="20" rx="10" fill="#E5DED2" stroke="none" stroke-width="0" />
<rect x="840" y="384" width="88" height="20" rx="10" fill="#24211C" stroke="none" stroke-width="0" />
<rect x="1020" y="384" width="112" height="20" rx="10" fill="#E5DED2" stroke="none" stroke-width="0" />
<rect x="1020" y="384" width="44" height="20" rx="10" fill="#24211C" stroke="none" stroke-width="0" />
<text x="1190" y="410" font-family="Inter, Arial, sans-serif" font-size="22" font-weight="620" fill="#24211C" >fastest path</text>
<line x1="72" y1="474" x2="1368" y2="474" stroke="#D0C7BC" stroke-width="1.5" />
<text x="92" y="520" font-family="Inter, Arial, sans-serif" font-size="31" font-weight="780" fill="#24211C" >Partner</text>
<rect x="480" y="494" width="112" height="20" rx="10" fill="#E5DED2" stroke="none" stroke-width="0" />
<rect x="480" y="494" width="88" height="20" rx="10" fill="#24211C" stroke="none" stroke-width="0" />
<rect x="660" y="494" width="112" height="20" rx="10" fill="#E5DED2" stroke="none" stroke-width="0" />
<rect x="660" y="494" width="88" height="20" rx="10" fill="#24211C" stroke="none" stroke-width="0" />
<rect x="840" y="494" width="112" height="20" rx="10" fill="#E5DED2" stroke="none" stroke-width="0" />
<rect x="840" y="494" width="66" height="20" rx="10" fill="#24211C" stroke="none" stroke-width="0" />
<rect x="1020" y="494" width="112" height="20" rx="10" fill="#E5DED2" stroke="none" stroke-width="0" />
<rect x="1020" y="494" width="88" height="20" rx="10" fill="#24211C" stroke="none" stroke-width="0" />
<text x="1190" y="520" font-family="Inter, Arial, sans-serif" font-size="22" font-weight="620" fill="#24211C" >balanced bet</text>
<line x1="72" y1="586" x2="1368" y2="586" stroke="#D0C7BC" stroke-width="1.5" />
<rect x="72" y="666" width="1296" height="78" rx="8" fill="#24211C" stroke="#24211C" stroke-width="0" />
<text x="720" y="705" font-family="Inter, Arial, sans-serif" font-size="24" font-weight="720" fill="#F8F5EE" text-anchor="middle" dominant-baseline="middle">Recommendation: choose the balanced bet when speed matters but ownership still matters.</text>
</svg>
